<svg width="220" height="286" viewBox="0 0 220 286" fill="none" xmlns="http://www.w3.org/2000/svg">
<path d="M28.6821 284.801C27.0821 284.201 23.5821 282.801 19.6821 281.001C15.6821 279.201 6.28213 269.201 3.68213 263.901L1.18213 258.901L1.58213 225.601C1.78213 200.901 1.58213 192.001 0.682132 190.901C0.0821321 190.101 -0.217868 189.001 0.182132 188.401C0.482132 187.801 0.982132 185.201 1.18213 182.501C2.18213 168.801 16.5821 154.301 31.9821 151.501C39.6821 150.001 49.0821 151.701 56.3821 155.901C59.3821 157.601 80.7821 178.201 114.682 211.901C164.882 261.801 168.482 265.201 173.082 266.401C181.682 268.701 191.482 264.601 195.082 257.101C197.182 252.601 197.182 243.301 195.082 239.101C194.182 237.301 186.882 229.301 178.882 221.201L164.282 206.401L167.682 202.801C172.082 198.101 175.982 194.501 176.682 194.401C178.082 194.401 208.982 226.401 211.082 230.001C221.382 248.201 213.982 271.601 194.482 281.901C189.882 284.301 187.882 284.701 179.682 284.901C169.682 285.101 163.982 283.901 158.182 280.101C156.582 279.001 131.082 254.101 101.682 224.801C42.9821 166.401 45.3821 168.301 34.8821 169.901C28.2821 170.901 24.0821 174.101 20.8821 180.401L18.1821 185.901V217.401C18.2821 251.401 18.6821 254.901 23.3821 260.501C26.6821 264.401 31.2821 266.401 36.9821 266.401C46.5821 266.401 47.2821 265.901 63.9821 249.501L79.7821 234.001L86.1821 240.401L92.6821 246.801L76.3821 262.901C56.6821 282.501 53.1821 284.501 39.1821 285.001C34.2821 285.101 29.4821 285.001 28.6821 284.801Z" fill="#FDFDFD"/>
<path d="M129.382 196.201L123.582 190.101L155.982 157.501C175.682 137.601 189.782 122.601 192.082 119.101C194.082 116.001 195.682 113.101 195.682 112.801C195.682 112.501 196.282 110.801 197.082 109.101C201.882 98.1012 202.682 78.0012 198.782 66.2012C197.482 62.4012 196.082 59.2012 195.582 58.8012C195.082 58.5012 194.682 57.5012 194.682 56.5012C194.682 53.8012 185.582 41.4012 179.382 35.7012C173.182 30.1012 163.482 24.3012 156.582 22.1012C142.582 17.5012 140.582 17.4012 88.6821 17.7012C34.7821 18.0012 35.3821 17.9012 29.4821 23.8012C25.2821 28.1012 24.1821 36.5012 27.1821 42.7012C27.9821 44.5012 52.0821 69.3012 80.7821 97.8012L132.782 149.701L126.482 156.101L120.182 162.401L67.3821 109.701C38.2821 80.6012 13.3821 54.9012 11.8821 52.4012C7.98213 45.9012 6.68213 41.7012 6.68213 35.2012C6.68213 24.4012 13.4821 11.6012 22.1821 6.20116C30.4821 1.00116 33.3821 0.501163 57.1821 0.301163C142.582 -0.398837 149.682 -0.0988373 160.182 3.60116C187.582 13.5012 207.182 33.2012 216.282 60.4012C218.982 68.4012 219.182 69.8012 219.182 85.4012C219.082 102.701 218.582 105.601 213.582 117.501C208.382 129.901 203.082 136.201 169.782 169.601C151.882 187.701 136.782 202.401 136.182 202.401C135.682 202.401 132.582 199.601 129.382 196.201Z" fill="#FDFDFD"/>
</svg>
